<svg xmlns="http://www.w3.org/2000/svg" viewBox="0 0 504.83 627.47"><g id="Layer_2" data-name="Layer 2"><g id="logo-black"><path d="M328.17,138.64c-9.33-29.95-37.49-34.51-42.65-36.29S263.9,99.17,254.38,95c-25.59-11.11-31.74-30.55-31.74-30.55-.39,27.77,16.67,36.3,16.67,36.3-45.82,5-65.46-21.62-65.46-21.62,2,14.88,25.39,48.4,61.29,39.87s52,.79,52,.79c-46.42-2.38-67.44,38.08-67.44,38.08C241.88,137.06,271,141.22,271,141.22c-8.52,7.42-19.35,19.36-22.25,35.81-6.65,37.78,35.77,58.44,32.66,103.23-1.45,21-12.26,38-19.93,50-14.66,23-25,24.24-41,52.26-6.52,11.43-17.68,33.8-17.27,33h0C215.77,400.1,233.06,380,255,357.62,294.79,317,310.77,309,318,282.54c2.33-8.48,12.83-46.72-5.12-66.54-5.56-6.14-19.41-16.25-20.61-31.88a38.82,38.82,0,0,1,.18-5.81c.2-4.76,10.91-22.41,31.14-21.22s25.19,11.51,25.19,11.51c.23-1.34,2.19-14.33-7.08-23.34A25.16,25.16,0,0,0,328.17,138.64ZM301,149.16s-5.55-13.69-19.44-16.07h15.28s14.85-.32,21.62,11.9C318.45,145,306,144.79,301,149.16Z"/><path d="M261.36,258.84s-18.29-10.71-66.29-10.31S35.6,209.65,11.8,78.74c0,0-21.82,66.65,25.39,117S143.19,270.35,261.36,258.84Z"/><path d="M267.27,280.66a43.2,43.2,0,0,0-13.68-9.32c-9.61-4.06-16.65-2.65-33.92-1.79,0,0-18.26.92-37.29.2a266.83,266.83,0,0,1-30.93-3l15.46,16.06c10.23-.2,18.87-.51,25.39-.79,12.71-.55,20.22-.87,30.58-1.71,13.34-1.08,16.38-1.8,24.35-1.66A124.49,124.49,0,0,1,267.27,280.66Z"/><path d="M193.39,289.19s5.35,8.33,14.58,8.93c0,0-45.82,17.25-95.51,12.19L92.83,285.92S132.69,301.39,193.39,289.19Z"/><path d="M129.72,264.5S98.18,259.14,75,245.16l15.76,27.07S105.62,280,144,282.64C144,282.64,131.8,271.93,129.72,264.5Z"/><path d="M58.61,252.6s-2.38,19.93,29.75,55.33c0,0-86-20.52-88.36-114C0,194,16,229.25,58.61,252.6Z"/><path d="M269.26,300.79s-17.56-3.27-50,4.17-118.41,47.6-188.63,9.82c0,0,39.87,70.81,139.24,24.39C216.89,315.67,247.54,304.07,269.26,300.79Z"/><polygon points="222.25 328.76 218.08 340.07 153.52 369.52 158.88 354.94 222.25 328.76"/><path d="M198.64,230.28V240s-38.08-5.36-59.1-18.84l-12.3-25S155,225.12,198.64,230.28Z"/><path d="M121.85,213.25s-21.4-17.21-21.36-39.73c0,0-21.57-14.48-31-26.5l-8.29,5.4S76.87,190.48,121.85,213.25Z"/><circle cx="55.83" cy="134.28" r="5.55"/><circle cx="60.07" cy="392.74" r="5.29"/><path d="M203.71,361.67C155,382,134.29,396.43,126.54,402.89A14,14,0,1,0,136,416.81q0-.72,0-1.44c26.89-21.06,62.48-37.11,62.48-37.11Z"/><circle cx="24.09" cy="434.22" r="9.97"/><circle cx="89.95" cy="451.03" r="4.17"/><circle cx="55.9" cy="462.54" r="4.17"/><circle cx="89.14" cy="510.93" r="4.17"/><circle cx="113.07" cy="559.53" r="10.13"/><circle cx="199.7" cy="579.33" r="9.66"/><circle cx="463.69" cy="497.32" r="10.1"/><circle cx="451.49" cy="373.4" r="10.1"/><circle cx="453.28" cy="407.16" r="4.46"/><circle cx="421.05" cy="376.71" r="4.46"/><circle cx="486.8" cy="337.24" r="4.46"/><circle cx="438.65" cy="435.36" r="4.46"/><circle cx="55.19" cy="508.8" r="4.52"/><path d="M222.25,200.53s3.27,10.11,28.86,33.62a266.17,266.17,0,0,1-50.84-12.87A263.7,263.7,0,0,1,125.85,180C96.06,156.16,53.64,122.2,50.28,69.92c-.81-12.59-.14-38.59,19-69.92C69,16.56,70,76.89,114.55,131.8,154.36,180.86,205.08,196.15,222.25,200.53Z"/><path d="M125.24,366.74h0a2.3,2.3,0,0,1,1.67,3.89L65,435.57H47.62a2.3,2.3,0,0,1-2.3-2.3v-.69a2.3,2.3,0,0,1,2.3-2.3H63.25l60.34-62.83A2.29,2.29,0,0,1,125.24,366.74Z"/><path d="M135.15,446.18h0a2.61,2.61,0,0,1,2,4.33L105.82,486H80.23L59.54,507.61l-4.35-3.33L78.64,480.2h25.19l29.38-33.14A2.58,2.58,0,0,1,135.15,446.18Z"/><path d="M122.6,544.85,141.26,524V470.52l42.41-45.33a2.47,2.47,0,0,1,1.8-.78h0a2.46,2.46,0,0,1,1.83,4.12L146.92,472.9v52.46l-20,23.26a2.87,2.87,0,0,1-4,.32h0A2.86,2.86,0,0,1,122.6,544.85Z"/><path d="M384,388.36a21.27,21.27,0,1,0,21.27,21.27A21.27,21.27,0,0,0,384,388.36Zm0,31.83a10.56,10.56,0,1,1,10.56-10.56A10.56,10.56,0,0,1,384,420.19Z"/><path d="M478.93,135.45a5.77,5.77,0,0,0-4.71,3.61,5.45,5.45,0,0,0,0,4.11l-31.63,31.62h0v30.35H340.14a2.31,2.31,0,0,0-2.31,2.31h0a2.31,2.31,0,0,0,2.31,2.3h107v-33l30.3-30.29a5.43,5.43,0,0,0,4.1,0,5.77,5.77,0,0,0,3.61-4.7A5.7,5.7,0,0,0,478.93,135.45Z"/><path d="M482.73,190.61a10.09,10.09,0,0,0-6.9,15.28l-30.57,30.57H350.21a2.3,2.3,0,0,0-2.31,2.3h0a2.3,2.3,0,0,0,2.31,2.31h97l31.93-31.92a10.1,10.1,0,1,0,3.63-18.54Z"/><path d="M496.68,231.09A5.78,5.78,0,0,0,492,234.7a5.43,5.43,0,0,0,0,4.1l-65.91,65.91H350.21A2.3,2.3,0,0,0,347.9,307h0a2.3,2.3,0,0,0,2.31,2.3H428l67.26-67.26a5.45,5.45,0,0,0,4.11,0,5.76,5.76,0,0,0,3.6-4.71A5.7,5.7,0,0,0,496.68,231.09Z"/><path d="M403.12,282.25a5.69,5.69,0,0,0-6.48,3.25H350.21a2.3,2.3,0,0,0-2.31,2.31h0a2.3,2.3,0,0,0,2.31,2.3h46.43a5.7,5.7,0,1,0,6.48-7.86Z"/><path d="M420.82,254.47a5.71,5.71,0,0,0-6.48,3.26H350.21a2.3,2.3,0,0,0-2.31,2.3h0a2.3,2.3,0,0,0,2.31,2.31h64.13a5.7,5.7,0,1,0,6.48-7.87Z"/><path d="M487.48,288.52a5.77,5.77,0,0,0-4.71,3.61,5.45,5.45,0,0,0,0,4.11l-43.92,43.91H363.42l-24.71,24.71a2.31,2.31,0,0,0,0,3.26h0a2.31,2.31,0,0,0,3.26,0l23.36-23.36h75.42L486,299.5a5.46,5.46,0,0,0,4.11,0,5.77,5.77,0,0,0,3.6-4.71A5.7,5.7,0,0,0,487.48,288.52Z"/><path d="M491.94,410.15a11,11,0,0,0-7.52,16.76l-49.68,52.82a2.51,2.51,0,0,0,.11,3.55h0a2.51,2.51,0,0,0,3.56-.1L488,430.45a11,11,0,1,0,3.95-20.3Z"/><path d="M324,311.24s-9.12,15.24-43.24,43.7-39.67,46.22-39.67,46.22l8.33,16.76s13.09-36.1,46.41-57.92c0,0-70.21,63.45-19,150.93a73.38,73.38,0,0,1,8.73-20.42s-26.18-44.41,7.14-97.77C320,349.14,322.41,321.2,324,311.24Z"/><path d="M229.19,404.83S163.74,544.07,358.91,627.37c0,0-50.78,4.37-105.12-45.22S188.33,450.45,229.19,404.83Z"/><path d="M292.66,535.74a122.59,122.59,0,0,0,37.69,21.81c9.91,3.18,14.68,10.4,25,16.91s51.57,27.92,93.62,33.87C449,608.33,350.18,632.53,292.66,535.74Z"/><path d="M444.5,510.93,434.19,526s-161,11.21-141.53-144.84l20.95-29.26S263.11,517.07,444.5,510.93Z"/><path d="M324,435.36s14.68,38.89,87.67,36.9l9.38,15S335.9,497.63,324,435.36Z"/><path d="M469.44,561.12s-114.5,4.37-169.64-85.68L291,480.6S344,594.05,469.44,561.12Z"/><path d="M316.46,537.72S297.61,525.26,291,508.8C291,508.8,293.45,533.75,316.46,537.72Z"/><path d="M235.54,430.08l11.1,14.12s-15.3,35,32.14,107c0,0-19.44-6-32.53-32.14S228.68,456.37,235.54,430.08Z"/><path d="M193.09,449.26l-10.71,5.95s-6.74,35.69,2,58.11c5.17,12.87,14.83,15.67,14.83,15.67S182.78,490.51,193.09,449.26Z"/><path d="M169.69,458.36s-5.95,6.37-9.13,12.71-5.55,58.72,4.56,75.38l27.18,15.86S157.79,521,169.69,458.36Z"/></g></g></svg>